<svg id="svg" version="1.1" viewBox="0 0 300 300" width="300" height="300" xmlns="http://www.w3.org/2000/svg"><svg xmlns="http://www.w3.org/2000/svg"><defs><clipPath id="clip-1"><rect x="0" y="0" transform="scale(0.14648,0.14648)" width="2048" height="2048" fill="none"/></clipPath></defs><g clip-path="url(#clip-1)" fill="none" fill-rule="nonzero" stroke="none" stroke-width="1" stroke-linecap="butt" stroke-linejoin="miter" stroke-miterlimit="10" stroke-dasharray="" stroke-dashoffset="0" font-family="none" font-weight="none" font-size="none" text-anchor="none" style="mix-blend-mode: normal"><path d="M146.51953,5.62279c1.37695,-0.07884 2.79199,-0.07069 4.15869,0.11288c1.91455,0.24977 3.77197,0.83001 5.4873,1.71486c2.05957,1.0646 4.67432,2.74214 6.69727,3.95667l12.20947,7.33898l36.59033,22.05879l33.52441,20.32529c5.80957,3.52119 13.51611,7.95674 19.021,11.74526c1.5,1.03271 2.81982,2.30391 3.90967,3.76333c4.41357,5.88999 3.75879,10.8624 3.75879,17.77734l-0.00732,14.95737l-0.00146,48.0356l0.00146,39.03369l-0.00586,11.42139c-0.0249,12.54053 -1.35352,15.75293 -12.12451,22.41211l-8.42285,5.15771c-1.49121,0.9126 -3.52881,2.0918 -4.88086,3.10254l-0.18311,0.1377l32.49023,32.00537c3.49658,3.39551 6.97412,6.80859 10.43555,10.23926c2.13574,2.10059 6.33545,5.28809 6.35156,8.29834c-0.00146,1.29932 -0.51709,2.5459 -1.43262,3.46729c-0.91992,0.9082 -2.16211,1.4165 -3.45557,1.41211c-0.79395,-0.00439 -1.79297,-0.24609 -2.39941,-0.76025c-1.88525,-1.59814 -3.73242,-3.47021 -5.49756,-5.19873l-10.86328,-10.7417l-34.03271,-33.69287c-2.15625,1.54541 -6.20508,3.8833 -8.55029,5.34375l-17.26758,10.72412c-2.88721,1.90283 -6.12012,3.81592 -9.07471,5.67188l-24.21973,15.12012l-14.12256,8.8125c-2.18408,1.36963 -5.99707,3.92578 -8.15479,5.0376c-1.81348,0.93896 -3.77344,1.55859 -5.79639,1.83252c-3.55078,0.50391 -7.17041,-0.04834 -10.40874,-1.58789c-1.94399,-0.92871 -5.03086,-2.98242 -6.96826,-4.18945l-12.00469,-7.48682l-36.36284,-22.60547l-37.14463,-22.75488l-11.5626,-7.08398c-1.56885,-0.96387 -4.41387,-2.60156 -5.79858,-3.63867c-3.33223,-2.49463 -5.93218,-7.2334 -6.43242,-11.34814c-0.32871,-2.7041 -0.25898,-5.77441 -0.26001,-8.54004l0.00322,-11.91211l0.00234,-40.43848l-0.00396,-46.07021l-0.00029,-13.97227c-0.00161,-6.31245 -0.5814,-12.18896 3.60439,-17.49316c1.06245,-1.33477 2.32339,-2.49844 3.73901,-3.45029c1.72925,-1.15869 3.98042,-2.3644 5.80049,-3.47886l16.99907,-10.24863l34.31968,-20.88867l33.94761,-20.65562c3.01787,-1.8394 5.99971,-3.71543 9.06079,-5.48571c5.21851,-3.0179 9.14941,-6.54697 15.32783,-7.29346zM233.64697,239.59424c-1.92334,-2.05664 -4.00781,-4.11328 -6.04248,-6.06592c-6.52441,-6.25635 -12.79541,-12.82617 -19.30811,-19.08545c-2.06689,2.02002 -4.29199,4.18506 -6.52441,6.02051c-15.92871,13.13672 -36.03223,20.14014 -56.67524,19.73877c-22.85742,-0.25488 -45.80874,-11.2251 -61.54219,-27.5127c-5.58018,-5.77734 -9.25532,-11.04785 -13.31528,-17.88281c-26.39766,-48.40195 -5.05532,-110.88765 47.07085,-130.34663c17.80693,-6.66372 37.30708,-7.30562 55.51362,-1.82725c14.86377,4.41196 28.54688,13.37373 38.96484,24.84595c29.80078,32.81265 31.74023,85.59844 3.01611,119.9417c7.67725,8.04785 15.96826,15.68994 23.79346,23.60303c1.15137,1.16309 2.34082,2.33203 3.52002,3.46436c3.54199,-2.39209 7.40918,-4.56885 10.97314,-6.86719c5.25879,-3.38818 11.78613,-5.70996 12.87305,-12.71631c0.28418,-1.82812 0.20361,-3.69434 0.20215,-5.54736l-0.00586,-8.0083l-0.01025,-29.45654v-57.14897l0.00146,-18.32769c0.00146,-5.13721 0.80273,-11.55894 -2.22949,-15.90542c-0.77051,-1.09526 -1.73145,-2.04243 -2.8374,-2.7958c-2.48877,-1.70537 -5.79785,-3.61963 -8.40967,-5.20371l-10.82666,-6.62549l-33.12451,-20.04316l-36.44971,-21.97529l-12.05127,-7.22739c-3.84814,-2.31879 -7.69629,-5.4232 -12.36182,-5.30708c-4.71035,0.40721 -7.25054,2.60045 -11.17017,4.99507l-10.80498,6.57935l-35.53447,21.58315l-37.47554,22.71475l-12.0854,7.26841c-1.84116,1.09409 -5.29541,2.99253 -6.87305,4.15562c-0.58433,0.43418 -1.11606,0.93516 -1.58452,1.49253c-3.46099,4.07402 -2.76416,8.43369 -2.76431,13.46162l0.00439,13.12061l0.00527,41.43501l0.00044,45.03223l-0.00718,13.85596c-0.00234,5.70557 -0.8146,11.06104 4.16382,15.1626c1.21626,1.00195 3.04731,2.00244 4.40742,2.83154l8.33818,5.07129l33.74824,20.625l40.679,25.21436l14.34053,8.97949c2.13442,1.33594 5.30215,3.46729 7.45283,4.59814c2.00654,1.05322 4.27764,1.49561 6.53203,1.27148c1.23193,-0.1333 3.15088,-0.55518 4.20557,-1.18652c4.64648,-2.77588 9.27246,-5.76123 13.86182,-8.64258l26.31152,-16.45312l25.81934,-16.07959l8.28809,-5.13721c1.94385,-1.19238 4.0708,-2.39209 5.92676,-3.68701zM149.39502,234.36768c18.01465,-0.58447 35.30713,-7.21289 49.09717,-18.81885c21.1582,-17.81104 32.04639,-42.3999 30.97412,-69.99141c-0.90967,-22.53911 -10.62305,-43.82212 -27.0542,-59.27827c-15.38818,-14.33262 -35.7832,-22.06084 -56.80605,-21.52559c-0.31626,0.01172 -0.63193,0.03691 -0.94629,0.07515c-3.40122,0.20742 -6.81416,0.46611 -10.17759,1.03008c-18.55957,3.05669 -35.5021,12.4062 -47.98271,26.47852c-1.6979,1.91514 -3.28184,3.8647 -4.79341,5.93174c-26.27856,35.93745 -22.48667,85.53662 11.43237,115.42822c15.46187,13.75928 35.5645,21.14502 56.25659,20.67041z" fill="#fefefe"/><path d="M127.39966,93.78633c2.74497,-0.21958 5.05107,0.15469 7.31074,1.83472c2.14717,1.61499 3.56016,4.0207 3.92476,6.68247c0.51123,3.51548 -0.62769,5.84224 -2.66895,8.5374c5.38169,6.83247 10.84775,14.55571 16.09629,21.57158l7.05176,9.43037c1.15869,1.5479 2.65576,3.37148 3.66211,4.95205c4.89111,-2.05576 11.04346,-0.57495 13.43115,4.41797c3.35303,-1.37109 6.81152,-2.5957 10.19971,-3.89355l12.91846,-5.01533c-0.10254,-1.12646 -0.17725,-2.39194 -0.06006,-3.51431c0.24316,-2.57197 1.50439,-4.93975 3.50391,-6.57554c2.10205,-1.68574 4.6333,-2.31489 7.29492,-1.99526c2.54004,0.28945 4.84863,1.61016 6.38379,3.65259c1.72705,2.24487 2.45801,5.09912 2.02295,7.89741c-0.38818,2.59995 -1.93066,4.9894 -4.05762,6.51284c-2.15625,1.51758 -4.83252,2.10205 -7.42529,1.62158c-2.98828,-0.54053 -4.80176,-2.21631 -6.48193,-4.61074c-7.73145,3.06094 -15.49512,6.04189 -23.28955,8.94229c0.18457,5.84766 -2.4375,10.3374 -8.46387,11.521c0.15381,9.26221 0.00879,18.87744 0.03369,28.1792c0.95068,0.19043 2.13135,0.59766 2.99268,1.04297c2.32324,1.18652 4.06787,3.26367 4.83691,5.75684c0.81592,2.69531 0.58887,5.39209 -0.78223,7.86035c-1.32129,2.36133 -3.53027,4.09717 -6.13623,4.8208c-2.59277,0.71924 -5.36426,0.37354 -7.69922,-0.9624c-5.2207,-2.95459 -6.27686,-9.37793 -3.22266,-14.33936c1.88379,-2.5752 3.65186,-3.36475 6.63281,-4.229c-0.15527,-9.06006 -0.01465,-18.93164 0.00293,-28.05762c-1.875,-0.53174 -3.23437,-1.05908 -4.76367,-2.33203c-2.02734,-1.66846 -3.29736,-4.08105 -3.52295,-6.69727c-0.26953,-3.22559 0.9624,-5.70703 2.98828,-8.09912l-18.05713,-24.09727c-2.88252,-3.9312 -5.80781,-7.83076 -8.77544,-11.6981c-3.15937,1.3062 -6.60894,1.45986 -9.5874,-0.43638c-0.72539,1.00122 -2.01519,2.377 -2.86787,3.34497c-1.82124,2.05269 -3.63193,4.11489 -5.43193,6.18618l-19.74668,22.70522c4.55581,5.28589 2.37642,13.6604 -4.12192,16.02612c-8.70337,3.16846 -16.89521,-5.36865 -12.82397,-13.89844c1.14229,-2.43486 3.21753,-4.30679 5.75698,-5.19287c3.19937,-1.09746 5.81191,-0.49922 8.73984,0.93135c1.17026,-1.48916 2.45508,-3.02183 3.70986,-4.44595c8.09897,-9.19146 15.9312,-18.74736 24.28462,-27.70122c-4.57148,-6.59355 -2.0269,-15.3126 6.20742,-16.63652z" fill="#fefefe"/></g></svg></svg>