<svg id="svg" version="1.1" viewBox="0 0 300 300" width="300" height="300" xmlns="http://www.w3.org/2000/svg"><svg xmlns="http://www.w3.org/2000/svg"><defs><clipPath id="clip-1"><rect x="0" y="0" transform="scale(0.14648,0.14648)" width="2048" height="2048" fill="none"/></clipPath></defs><g clip-path="url(#clip-1)" fill="none" fill-rule="nonzero" stroke="none" stroke-width="1" stroke-linecap="butt" stroke-linejoin="miter" stroke-miterlimit="10" stroke-dasharray="" stroke-dashoffset="0" font-family="none" font-weight="none" font-size="none" text-anchor="none" style="mix-blend-mode: normal"><path d="M0,0h300v300h-300z" fill="#fefefe"/><path d="M144.91362,7.22483c6.37544,-0.76954 9.82368,1.89198 14.93306,4.89243l9.33545,5.49426c14.30127,8.44146 28.53955,16.99014 42.71191,25.64531l36.44678,21.99551c4.05908,2.45273 8.10059,4.93462 12.12305,7.44565c4.07813,2.52583 7.38428,4.04722 9.94482,8.42256c2.67188,4.56475 2.521,7.76646 2.52686,12.81577l0.00439,9.07793l-0.00732,28.60415l-0.00293,56.90259l0.00879,14.55029c0.00146,3.20801 0.22266,8.9165 -0.54053,11.81836c-0.92725,3.48193 -2.80664,6.63721 -5.42725,9.10986c-1.90576,1.79297 -6.29443,4.08691 -8.78613,5.52393l-12.94189,7.51172l29.42432,30.14063c3.88037,3.88477 7.74023,7.79004 11.57959,11.71729c1.90576,1.93652 3.87451,3.85693 5.69092,5.8916c1.3374,1.49854 1.59229,4.27441 0.12891,5.82568c-1.43408,1.66992 -4.31396,2.12549 -6.02783,0.57275c-1.8252,-1.65381 -3.65186,-3.58887 -5.40527,-5.36865l-9.33838,-9.39697l-17.86084,-17.98682c-5.27637,-5.37158 -10.76074,-11.15039 -16.13232,-16.36084c-8.78174,5.27783 -17.49463,10.66846 -26.13867,16.17041l-36.21094,22.1792l-11.90332,7.29932c-2.08008,1.28467 -5.28223,3.38232 -7.35352,4.4209c-1.45898,0.72363 -3.01172,1.2334 -4.61426,1.51904c-3.73682,0.66357 -7.58672,0.18896 -11.05063,-1.36377c-1.24614,-0.56396 -3.31846,-1.90283 -4.55684,-2.6499l-8.1936,-4.94238l-27.31538,-16.48389l-47.92485,-28.80908l-15.20098,-9.18164c-5.37466,-3.22998 -10.65879,-5.50635 -13.65835,-11.3584c-2.35898,-4.60254 -2.09824,-8.04346 -2.09883,-13.01953l0.00469,-10.57324l0.00103,-37.04736l-0.00366,-46.79604l-0.00571,-14.44731c0.00073,-7.02627 -0.52749,-13.14419 4.76602,-18.6646c2.32236,-2.42183 4.74741,-3.48867 7.54717,-5.21733l12.57407,-7.77158l39.22192,-23.88999l34.1814,-20.76196c4.71694,-2.86274 9.41851,-5.63599 14.19639,-8.39043c4.46104,-2.57183 6.06006,-4.28435 11.34873,-5.0654z" fill="#000000"/><path d="M145.25259,12.49342c1.22637,-0.11933 2.46372,-0.06375 3.67368,0.16509c1.23047,0.23708 2.41553,0.67047 3.5083,1.28357c2.47412,1.36012 5.36279,3.23732 7.8457,4.73761l13.57178,8.15347l36.08057,21.6939l34.21875,20.73223l12.39111,7.57705c3.13916,1.92495 6.88623,3.60117 8.96045,6.69932c2.89453,4.32451 2.12842,9.95259 2.12842,15.00747l-0.00439,16.88657l0.00293,52.96289l0.00293,30.74707l-0.00146,8.15771c-0.00146,4.51025 0.03076,8.37305 -3.35303,11.91504c-2.33936,2.45068 -5.64111,4.00049 -8.49316,5.82275c-4.80469,3.06885 -9.82617,5.85059 -14.62354,8.93262c-3.40723,-3.18457 -7.67871,-7.76221 -10.96289,-11.15332c-4.80615,-4.9043 -9.57568,-9.84375 -14.30859,-14.81689c7.63623,-9.94189 13.29346,-21.25635 16.66846,-33.32959c6.59619,-23.23682 3.57275,-48.15044 -8.39209,-69.13418c-11.45654,-20.23315 -30.51123,-35.05986 -52.93945,-41.19272c-22.69336,-6.26689 -46.94106,-3.36328 -67.51304,8.08491c-20.60098,11.67202 -35.76826,30.99668 -42.21108,53.78101c-6.81768,24.38481 -4.08794,47.14849 8.38081,69.2896c3.74385,6.75439 9.08906,13.51904 14.57314,18.93604c36.24976,35.80811 89.72915,35.74512 125.83315,-0.00146c7.92188,7.71533 15.6665,16.21289 23.55322,24.11572c-15.06299,8.86816 -30.05859,17.85059 -44.98535,26.94727l-24.63721,15.1084l-6.99756,4.2876c-1.33154,0.82031 -2.84912,1.82813 -4.24365,2.54736c-2.99121,1.54102 -7.45913,1.59229 -10.48096,0.09961c-1.88716,-0.93164 -3.89282,-2.2251 -5.68564,-3.30908l-10.01938,-6.10254l-29.75771,-17.9751l-44.8541,-26.91504l-12.93281,-7.75781c-2.36851,-1.41064 -5.05649,-2.94141 -7.30752,-4.39746c-2.72417,-1.76221 -4.9645,-5.38477 -5.42886,-8.57373c-0.24419,-1.67725 -0.18442,-3.91992 -0.1853,-5.68799l0.00249,-9.02197v-31.76514l0.00571,-51.17109l-0.00381,-16.33887c0,-5.37759 -0.80566,-10.83999 2.51396,-15.40752c0.76553,-1.07373 1.71987,-1.99907 2.81675,-2.73105c1.9563,-1.30005 4.45503,-2.6978 6.50786,-3.95508l15.56938,-9.49731l42.63076,-25.9355l29.56655,-17.98096c3.50566,-2.18584 7.02861,-4.34414 10.56855,-6.47432c3.17124,-1.90803 5.02134,-3.46277 8.74717,-4.04613z" fill="#fefefe"/><path d="M143.79507,66.56895c0.05684,-0.00396 0.11382,-0.00791 0.17065,-0.01187c22.31748,-0.81431 44.04111,7.27852 60.38584,22.49517c15.91699,14.78027 25.57178,36.64761 26.34521,58.30225c0.67676,23.28076 -7.95557,45.87158 -23.98535,62.76855c-13.96582,14.93994 -36.09082,25.0752 -56.56934,25.77539c-4.89463,0.05566 -9.173,-0.06299 -14.05562,-0.77051c-15.86763,-2.2998 -31.59478,-9.87305 -43.56694,-20.49023c-17.48086,-15.31641 -28.06289,-37.02246 -29.36133,-60.22705c-1.1729,-21.13081 7.80103,-44.61606 21.95757,-60.17021c15.57217,-17.10952 35.73208,-26.38345 58.6793,-27.67148z" fill="#fefefe"/><path d="M126.80654,96.43916c2.27476,-0.02505 4.49209,0.7144 6.29648,2.09985c2.08535,1.64253 3.43154,4.04722 3.74165,6.6835c0.35537,2.8834 -0.58403,5.47163 -2.36016,7.70962c1.08281,1.60063 2.80723,3.6895 4.02202,5.24795c2.37803,3.07192 4.77817,6.12671 7.20029,9.16392l14.99531,19.21655c2.03027,-0.84375 4.27588,-1.01997 6.41162,-0.50361c3.03516,0.72334 4.92627,2.45479 6.52588,5.02998c7.9292,-2.75244 16.43408,-6.29736 24.33545,-8.84092c-0.20508,-1.34927 -0.31934,-2.19038 -0.12891,-3.54639c0.37939,-2.65825 1.81201,-5.05239 3.97412,-6.6438c2.17383,-1.58774 4.73145,-2.13618 7.37988,-1.71797c2.55908,0.41997 4.84277,1.84526 6.3457,3.95874c1.49561,2.11743 2.09619,4.73965 1.66992,7.29712c-0.44238,2.61987 -1.9292,4.9478 -4.12207,6.44927c-2.21338,1.51172 -4.94092,2.07568 -7.57178,1.56445c-2.79492,-0.53613 -4.62305,-1.89404 -6.21533,-4.20396c-8.23975,2.85923 -16.28467,6.1478 -24.65918,8.97349c0.22559,5.79053 -2.65283,9.73535 -8.31445,11.08301c0.30176,8.64111 0.0542,18.82471 0.04541,27.54785c0.3252,0.08057 0.64893,0.16992 0.96973,0.26514c2.59424,0.76904 4.77246,2.5459 6.04834,4.93213c2.55762,4.83838 0.70605,10.9292 -4.20117,13.43115c-2.45508,1.23633 -5.3042,1.43555 -7.90869,0.55664c-2.44043,-0.80713 -4.44873,-2.56934 -5.56348,-4.88379c-1.34473,-2.78027 -1.18506,-5.61035 -0.17139,-8.45947c0.21973,-0.51416 0.48633,-1.00781 0.79834,-1.47363c1.56885,-2.39355 3.79834,-3.70752 6.55957,-4.26855c-0.04102,-9.21826 -0.03369,-18.43506 0.0249,-27.65332c-8.21631,-2.05225 -10.81055,-10.69482 -5.16357,-16.92041c-1.01807,-1.12354 -2.46533,-3.07002 -3.43066,-4.29712l-6.1875,-7.8665c-5.446,-6.91875 -11.19463,-14.00947 -16.48257,-21.0186c-0.41924,0.20039 -0.84829,0.37969 -1.28555,0.53716c-3.06328,1.10347 -5.60127,0.53511 -8.4249,-0.78955c-4.51567,4.56489 -8.59233,9.81343 -12.98979,14.51367c-4.88071,5.21631 -9.47915,10.71079 -14.32778,15.95479c0.71543,0.8562 1.26387,1.83823 1.61689,2.89731c0.80332,2.34375 0.62388,5.12842 -0.50376,7.34326c-1.25435,2.45654 -3.43418,4.31543 -6.05918,5.16504c-2.51455,0.79102 -5.2396,0.55664 -7.58276,-0.65039c-7.75093,-3.96387 -6.60015,-15.82207 1.81421,-18.179c2.94375,-0.82456 5.39956,-0.43696 8.05898,0.99243c8.99414,-10.2416 18.07544,-20.40645 27.24302,-30.49321c-1.13232,-1.71357 -1.78433,-3.08862 -1.99995,-5.17998c-0.2792,-2.70044 0.54434,-5.39927 2.28354,-7.48403c1.89258,-2.3001 4.40845,-3.25635 7.29331,-3.53979z" fill="#000000"/></g></svg></svg>